<svg width="44" height="40" viewBox="0 0 44 40" fill="none" xmlns="http://www.w3.org/2000/svg">
<path d="M32.1539 0C28.4156 0 25.3847 2.75846 25.3847 6.15385C25.3847 10.2538 31.3078 15.8554 31.3078 21.4908H33.0001C33.0018 15.8554 38.9231 10.4154 38.9231 6.15385C38.9231 2.75846 35.8922 0 32.1539 0ZM32.1539 2.98154C32.6124 2.98174 33.0663 3.06403 33.4898 3.22372C33.9133 3.38341 34.2981 3.61736 34.6221 3.91222C34.9461 4.20709 35.2031 4.55708 35.3783 4.94223C35.5536 5.32737 35.6437 5.74013 35.6435 6.15692C35.6432 6.57372 35.5527 6.98639 35.3771 7.37138C35.2014 7.75638 34.944 8.10614 34.6197 8.40072C34.2954 8.6953 33.9104 8.92891 33.4867 9.08823C33.063 9.24754 32.609 9.32943 32.1505 9.32923C31.2244 9.32882 30.3363 8.99396 29.6818 8.39832C29.0272 7.80268 28.6597 6.99504 28.6601 6.15308C28.6606 5.31112 29.0289 4.5038 29.6842 3.90874C30.3394 3.31367 31.2278 2.97959 32.1539 2.98V2.98154ZM22.0001 3.07692C10.8021 3.07692 1.69238 11.3585 1.69238 21.5385C1.69238 31.7185 10.8021 40 22.0001 40C33.1981 40 42.3078 31.7185 42.3078 21.5385C42.3078 18.4462 41.465 15.5446 39.9808 12.98C39.7558 13.3862 39.529 13.7723 39.2938 14.1831C38.8487 14.9646 38.3799 15.7538 37.9704 16.5385C38.3935 17.6385 38.6845 18.8015 38.8165 20H36.5962C36.4744 20.5154 36.3847 21 36.3847 21.4908V23.0769H38.8182C38.5886 25.2459 37.8487 27.3446 36.6487 29.2308H31.6801C32.0524 27.7877 32.2673 26.1923 32.4196 24.5677H29.0858C28.9281 26.1418 28.6281 27.7014 28.1888 29.2308H15.8113C15.2394 27.2173 14.9024 25.1546 14.8061 23.0769H27.9215V21.4908C27.9084 20.9885 27.8375 20.4889 27.7099 20H14.8078C14.9041 17.9223 15.2411 15.8596 15.813 13.8462H24.8567C24.2697 12.8385 23.7222 11.8122 23.2152 10.7692H16.9756C18.3752 7.86615 20.2248 6.15385 22.0001 6.15385C22.0001 5.08462 22.2116 4.08 22.5822 3.12462C22.3876 3.11846 22.1964 3.07692 22.0001 3.07692ZM15.0193 7.54769C14.3454 8.57093 13.7788 9.64953 13.327 10.7692H9.94238C11.4021 9.42046 13.1233 8.32831 15.0193 7.54769ZM7.35146 13.8462H12.3201C11.8082 15.8672 11.5074 17.9276 11.4215 20H5.18192C5.41077 17.8309 6.15072 15.7321 7.35146 13.8462ZM5.18192 23.0769H11.4232C11.523 25.2692 11.8344 27.3385 12.3218 29.2308H7.35146C6.15217 27.3443 5.41233 25.2457 5.18192 23.0769ZM9.94238 32.3077H13.327C13.8144 33.5015 14.3847 34.5738 15.0193 35.5292C13.1233 34.7486 11.4021 33.6565 9.94238 32.3077ZM16.9756 32.3077H27.0245C25.625 35.2108 23.7753 36.9231 22.0001 36.9231C20.2248 36.9231 18.3735 35.2108 16.9756 32.3077ZM30.6732 32.3077H34.0578C32.598 33.6565 30.8768 34.7486 28.9808 35.5292C29.6155 34.5754 30.1858 33.5031 30.6732 32.3077Z" fill="white"/>
</svg>
