<svg width="44" height="44" viewBox="0 0 44 44" fill="none" xmlns="http://www.w3.org/2000/svg">
<g id="ic:sharp-support-agent">
<path id="Vector" d="M16.5001 25.6667C17.5126 25.6667 18.3334 24.8459 18.3334 23.8333C18.3334 22.8208 17.5126 22 16.5001 22C15.4876 22 14.6667 22.8208 14.6667 23.8333C14.6667 24.8459 15.4876 25.6667 16.5001 25.6667Z" fill="white"/>
<path id="Vector_2" d="M27.5001 25.6667C28.5126 25.6667 29.3334 24.8459 29.3334 23.8333C29.3334 22.8208 28.5126 22 27.5001 22C26.4876 22 25.6667 22.8208 25.6667 23.8333C25.6667 24.8459 26.4876 25.6667 27.5001 25.6667Z" fill="white"/>
<path id="Vector_3" d="M33.0001 20.2217C32.563 17.6442 31.228 15.3046 29.2316 13.6169C27.2352 11.9291 24.706 11.0021 22.0918 11C16.5368 11 10.5601 15.6017 11.0368 22.825C13.2975 21.8999 15.2942 20.4297 16.8489 18.5456C18.4035 16.6615 19.4678 14.4219 19.9468 12.0267C22.3484 16.8483 27.2801 20.1667 33.0001 20.2217Z" fill="white"/>
<path id="Vector_4" d="M38.4817 22C38.2801 12.155 30.5801 5.5 22.0001 5.5C13.5484 5.5 5.77508 11.9717 5.51841 22H3.66675V33H9.16675V22.3483C9.16675 15.3267 14.5751 9.185 21.5967 8.98333C23.3152 8.93107 25.0267 9.22429 26.6298 9.84563C28.2329 10.467 29.6949 11.4038 30.9293 12.6005C32.1636 13.7973 33.1452 15.2296 33.8158 16.8127C34.4865 18.3958 34.8325 20.0974 34.8334 21.8167V34.8333H20.1667V38.5H38.5001V33H40.3334V22H38.4817Z" fill="white"/>
</g>
</svg>
