<svg width="44" height="44" viewBox="0 0 44 44" fill="none" xmlns="http://www.w3.org/2000/svg">
<g id="carbon:virtual-desktop" clip-path="url(#clip0_11_304)">
<path id="Vector" d="M28.875 22H15.125C14.3959 22.0007 13.6968 22.2907 13.1813 22.8063C12.6657 23.3218 12.3757 24.0209 12.375 24.75V33C12.3757 33.7291 12.6657 34.4282 13.1813 34.9437C13.6968 35.4593 14.3959 35.7493 15.125 35.75H20.625V38.5H16.5V41.25H27.5V38.5H23.375V35.75H28.875C29.6041 35.7493 30.3032 35.4593 30.8187 34.9437C31.3343 34.4282 31.6243 33.7291 31.625 33V24.75C31.6243 24.0209 31.3343 23.3218 30.8187 22.8063C30.3032 22.2907 29.6041 22.0007 28.875 22ZM15.125 33V24.75H28.875L28.8778 33H15.125Z" fill="white"/>
<path id="Vector_2" d="M35.5052 13.9206C34.9044 10.779 33.2271 7.9451 30.7621 5.90682C28.297 3.86854 25.1985 2.75342 22 2.75342C18.8014 2.75342 15.7029 3.86854 13.2378 5.90682C10.7728 7.9451 9.09552 10.779 8.4947 13.9206C6.01692 14.3617 3.78634 15.6946 2.22412 17.6678C0.661906 19.6409 -0.123831 22.1178 0.0152657 24.6307C0.154362 27.1435 1.20867 29.5185 2.97911 31.3072C4.74956 33.0959 7.11363 34.1745 9.62495 34.3394V31.5894C7.73376 31.416 5.97722 30.5368 4.70499 29.1269C3.43277 27.7169 2.73818 25.8795 2.7595 23.9805C2.78083 22.0815 3.5165 20.2602 4.82006 18.8791C6.12363 17.498 7.89947 16.6585 9.79408 16.5276L10.945 16.4506L11.0687 15.3039C11.365 12.6118 12.6442 10.1237 14.6614 8.31639C16.6785 6.50908 19.2916 5.50967 22 5.50967C24.7083 5.50967 27.3214 6.50908 29.3385 8.31639C31.3557 10.1237 32.6349 12.6118 32.9312 15.3039L33.055 16.4506L34.2058 16.5276C36.1021 16.6564 37.8801 17.4951 39.1855 18.8765C40.4909 20.258 41.2277 22.0806 41.249 23.9811C41.2704 25.8816 40.5747 27.7203 39.3006 29.1307C38.0266 30.541 36.2678 31.4194 34.375 31.5908V34.3408C36.8873 34.1772 39.2528 33.0992 41.0245 31.3102C42.7961 29.5213 43.8512 27.1455 43.9903 24.6316C44.1294 22.1178 43.343 19.64 41.7796 17.6665C40.2163 15.693 37.9842 14.3605 35.5052 13.9206Z" fill="white"/>
</g>
<defs>
<clipPath id="clip0_11_304">
<rect width="44" height="44" fill="white"/>
</clipPath>
</defs>
</svg>
