<svg width="45" height="43" viewBox="0 0 45 43" fill="none" xmlns="http://www.w3.org/2000/svg">
<g id="mdi:file-certificate-outline">
<path id="Vector" d="M26.25 23.2918V19.7085L22.5 21.5002L18.75 19.7085V23.2918L15 25.0835L18.75 26.8752V30.4585L22.5 28.6668L26.25 30.4585V26.8752L30 25.0835L26.25 23.2918ZM26.25 3.5835H13.125C12.1304 3.5835 11.1766 3.96102 10.4733 4.63303C9.77009 5.30504 9.375 6.21647 9.375 7.16683V32.2502C9.375 33.2005 9.77009 34.112 10.4733 34.784C11.1766 35.456 12.1304 35.8335 13.125 35.8335H15V32.2502H13.125V7.16683H24.375V14.3335H31.875V32.2502H30V35.8335H31.875C32.8696 35.8335 33.8234 35.456 34.5267 34.784C35.2299 34.112 35.625 33.2005 35.625 32.2502V12.5418L26.25 3.5835ZM26.25 23.2918V19.7085L22.5 21.5002L18.75 19.7085V23.2918L15 25.0835L18.75 26.8752V30.4585L22.5 28.6668L26.25 30.4585V26.8752L30 25.0835L26.25 23.2918ZM18.75 41.2085L22.5 39.4168L26.25 41.2085V32.2502H18.75V41.2085ZM26.25 23.2918V19.7085L22.5 21.5002L18.75 19.7085V23.2918L15 25.0835L18.75 26.8752V30.4585L22.5 28.6668L26.25 30.4585V26.8752L30 25.0835L26.25 23.2918Z" fill="white"/>
</g>
</svg>
