<svg width="60" height="59" viewBox="0 0 60 59" fill="none" xmlns="http://www.w3.org/2000/svg">
<g id="icons">
<rect id="Rectangle 9" y="-0.000366211" width="60" height="59" rx="10" fill="#5BB95B"/>
<path id="Vector" d="M27.85 21.6996C27.85 22.6385 27.0889 23.3996 26.15 23.3996H21.25C19.9372 23.3996 18.6781 23.937 17.7498 24.8934C16.8215 25.8498 16.3 27.147 16.3 28.4996C16.3 29.8522 16.8215 31.1494 17.7498 32.1059C18.6781 33.0623 19.9372 33.5996 21.25 33.5996H26.15C27.0889 33.5996 27.85 34.3607 27.85 35.2996C27.85 36.2385 27.0889 36.9996 26.15 36.9996H21.25C19.062 36.9996 16.9635 36.1041 15.4164 34.51C13.8692 32.916 13 30.754 13 28.4996C13 26.2453 13.8692 24.0833 15.4164 22.4892C16.9635 20.8952 19.062 19.9996 21.25 19.9996H26.15C27.0889 19.9996 27.85 20.7607 27.85 21.6996ZM31.15 35.2996C31.15 34.3607 31.9111 33.5996 32.85 33.5996H37.75C39.0628 33.5996 40.3219 33.0623 41.2502 32.1059C42.1785 31.1494 42.7 29.8522 42.7 28.4996C42.7 27.147 42.1785 25.8498 41.2502 24.8934C40.3219 23.937 39.0628 23.3996 37.75 23.3996H32.85C31.9111 23.3996 31.15 22.6385 31.15 21.6996C31.15 20.7607 31.9111 19.9996 32.85 19.9996H37.75C39.938 19.9996 42.0365 20.8952 43.5836 22.4892C45.1308 24.0833 46 26.2453 46 28.4996C46 30.754 45.1308 32.916 43.5836 34.51C42.0365 36.1041 39.938 36.9996 37.75 36.9996H32.85C31.9111 36.9996 31.15 36.2385 31.15 35.2996ZM24.55 26.7996H34.45C34.8876 26.7996 35.3073 26.9787 35.6167 27.2976C35.9262 27.6164 36.1 28.0488 36.1 28.4996C36.1 28.9505 35.9262 29.3829 35.6167 29.7017C35.3073 30.0205 34.8876 30.1996 34.45 30.1996H24.55C24.1124 30.1996 23.6927 30.0205 23.3833 29.7017C23.0738 29.3829 22.9 28.9505 22.9 28.4996C22.9 28.0488 23.0738 27.6164 23.3833 27.2976C23.6927 26.9787 24.1124 26.7996 24.55 26.7996Z" fill="white"/>
</g>
</svg>
