<svg width="61" height="59" viewBox="0 0 61 59" fill="none" xmlns="http://www.w3.org/2000/svg">
<g id="icons">
<rect id="Rectangle 10" width="60.1942" height="59" rx="10" fill="#5BB95B"/>
<g id="Group">
<path id="Vector" d="M19.875 18.7499H23.75V22.5H19.875V18.7499Z" fill="white"/>
<path id="Vector_2" d="M27.625 15V26.25H16V15H27.625ZM25.6875 16.875H17.9375V24.375H25.6875V16.875ZM23.75 37.5001H19.875V41.2501H23.75V37.5001Z" fill="white"/>
<path id="Vector_3" d="M27.625 33.7499V45H16V33.7499H27.625ZM17.9375 35.6249V43.125H25.6875V35.6249H17.9375ZM39.25 18.7499H43.125V22.4999H39.25V18.7499Z" fill="white"/>
<path id="Vector_4" d="M35.375 15V26.25H47V15H35.375ZM45.0625 16.875V24.375H37.3125V16.875H45.0625ZM31.5 16.875V15H33.4375V18.75H31.5V22.5H29.5625V16.875H31.5ZM31.5 26.25V22.5H33.4375V26.25H31.5ZM27.625 30.0001V28.125H29.5625V26.25H31.5V30.0001H33.4375V28.125H43.125V30.0001H35.375V31.8751H29.5625V30.0001H27.625ZM27.625 30.0001V31.8751H19.875V30.0001H17.9375V31.8751H16V28.125H21.8125V30.0001H27.625ZM47 31.8751H45.0625V28.125H47V31.8751ZM45.0625 31.8751H43.125V35.6251H47V33.7501H45.0625V31.8751ZM37.3125 31.8751H41.1875V33.7501H39.25V35.6251H37.3125V31.8751ZM41.1875 37.5001V35.6251H39.25V37.5001H37.3125V39.3751H33.4375V41.2501H39.25V37.5001H41.1875ZM41.1875 37.5001H47V39.3751H43.125V41.2501H41.1875V37.5001ZM33.4375 35.6251V37.5001H35.375V33.7501H29.5625V35.6251H33.4375Z" fill="white"/>
<path id="Vector_5" d="M29.5625 37.5H31.5V43.125H39.25V45H29.5625V37.5ZM47 41.25V45H41.1875V43.125H45.0625V41.25H47Z" fill="white"/>
</g>
</g>
</svg>
