<svg width="60" height="59" viewBox="0 0 60 59" fill="none" xmlns="http://www.w3.org/2000/svg">
<g id="icons">
<rect id="Rectangle 9" y="-0.000366211" width="60" height="59" rx="10" fill="#5BB95B"/>
<path id="Vector" fill-rule="evenodd" clip-rule="evenodd" d="M30.5256 14.9996C27.4928 14.9996 24.7292 16.2016 23.0942 17.1837C22.9465 17.2723 22.8089 17.3593 22.6806 17.4431C22.4268 17.609 22.2106 17.7637 22.0387 17.8999L23.8986 21.1852L24.7742 21.6033C28.1958 23.6746 32.7843 23.6746 36.2066 21.6033L37.2004 20.9846L38.9595 17.8999C38.5951 17.6147 38.2161 17.3572 37.8248 17.1289C36.1986 16.1573 33.5014 14.9996 30.5256 14.9996ZM26.1996 18.7184C25.541 18.5705 24.8905 18.3747 24.2518 18.1319C25.7833 17.3158 28.0662 16.4498 30.525 16.4498C32.2284 16.4498 33.8392 16.8655 35.1713 17.3923C33.6102 17.6558 31.9444 18.1029 30.3571 18.6531C29.1083 19.0866 27.6486 19.0398 26.1996 18.7184ZM36.9157 22.7981L36.7512 22.898C32.9864 25.1763 27.9937 25.1763 24.2289 22.898L24.0732 22.8029C18.4184 30.2477 14.1011 43.9996 30.5256 43.9996C46.9489 43.9996 42.5262 29.9907 36.9157 22.7981ZM29.8274 29.5008C29.4712 29.5008 29.1296 29.6706 28.8778 29.9728C28.626 30.2749 28.4845 30.6848 28.4845 31.1121C28.4845 31.5394 28.626 31.9492 28.8778 32.2514C29.1296 32.5536 29.4712 32.7233 29.8274 32.7233V29.5008ZM31.1702 27.8896V27.084H29.8274V27.8896C29.1151 27.8896 28.4319 28.2291 27.9283 28.8334C27.4246 29.4378 27.1416 30.2574 27.1416 31.1121C27.1416 31.9667 27.4246 32.7864 27.9283 33.3907C28.4319 33.9951 29.1151 34.3346 29.8274 34.3346V37.5571C29.5496 37.5572 29.2787 37.4539 29.052 37.2616C28.8252 37.0693 28.6537 36.7973 28.561 36.4832C28.5017 36.2817 28.3782 36.1167 28.2175 36.0246C28.0568 35.9324 27.8722 35.9206 27.7043 35.9917C27.5364 36.0629 27.3989 36.2112 27.3221 36.404C27.2453 36.5967 27.2354 36.8182 27.2947 37.0197C27.4799 37.6481 27.8229 38.1921 28.2765 38.5769C28.73 38.9617 29.2719 39.1683 29.8274 39.1683V39.9739H31.1702V39.1683C31.8825 39.1683 32.5656 38.8288 33.0693 38.2245C33.573 37.6201 33.856 36.8005 33.856 35.9458C33.856 35.0912 33.573 34.2715 33.0693 33.6672C32.5656 33.0628 31.8825 32.7233 31.1702 32.7233V29.5008C31.7544 29.5008 32.2519 29.948 32.4372 30.5747C32.4647 30.6773 32.5091 30.7722 32.5677 30.8538C32.6262 30.9354 32.6979 31.0021 32.7783 31.0499C32.8588 31.0977 32.9464 31.1257 33.036 31.1322C33.1256 31.1387 33.2154 31.1235 33.3001 31.0876C33.3847 31.0517 33.4625 30.9958 33.5288 30.9233C33.5952 30.8507 33.6487 30.7629 33.6862 30.665C33.7238 30.5672 33.7446 30.4613 33.7475 30.3536C33.7503 30.246 33.7352 30.1387 33.7029 30.0382C33.5177 29.4098 33.1747 28.8658 32.7211 28.481C32.2675 28.0962 31.7257 27.8896 31.1702 27.8896ZM31.1702 34.3346V37.5571C31.5264 37.5571 31.8679 37.3873 32.1198 37.0851C32.3716 36.783 32.5131 36.3731 32.5131 35.9458C32.5131 35.5185 32.3716 35.1087 32.1198 34.8065C31.8679 34.5043 31.5264 34.3346 31.1702 34.3346Z" fill="white"/>
</g>
</svg>
