<svg width="60" height="59" viewBox="0 0 60 59" fill="none" xmlns="http://www.w3.org/2000/svg">
<g id="icons">
<rect id="Rectangle 9" y="-0.000366211" width="60" height="59" rx="10" fill="#5BB95B"/>
<path id="Vector" d="M29.5028 21.7404V20.1401C28.8947 20.1856 28.5568 20.5191 28.2621 21.059L21.8101 34.5995H24.9034L23.9573 33.3626L24.7763 31.6004L24.781 31.6052L29.5028 21.7453V21.7404ZM27.654 29.9496H31.3507L29.5019 26.0113L27.654 29.9496ZM24.7763 31.6207H24.796L24.781 31.6052L24.7763 31.6207ZM41.4213 19.5391L31.0862 13.3897C30.2135 12.8701 28.7912 12.8701 27.9185 13.3897L17.5834 19.5391C16.7154 20.0538 16 21.3217 16 22.3559V34.6441C16 35.6842 16.7154 36.9462 17.5834 37.4609L27.9185 43.6103C28.7912 44.1299 30.2135 44.1299 31.0862 43.6103L41.4213 37.4512C42.2893 36.9462 43 35.6638 43 34.6392V22.3559C43 21.3207 42.2893 20.0538 41.4213 19.5391ZM33.8076 35.1142L32.9444 33.3219H26.0415L25.198 35.1142H21.0749L27.8507 20.8515C28.2329 20.0693 28.826 19.6903 29.5028 19.6903C30.1797 19.6903 30.8019 20.1148 31.1549 20.8409L37.9261 35.1132L33.8076 35.1142ZM29.5028 21.7404V24.9363L32.6648 31.6256H24.796L25.7468 32.8372H33.2438L34.0872 34.584H37.1956L35.0531 33.3064V33.3568L29.5028 21.7404Z" fill="white"/>
</g>
</svg>
