<svg width="23" height="29" viewBox="0 0 23 29" fill="none" xmlns="http://www.w3.org/2000/svg">
<path fill-rule="evenodd" clip-rule="evenodd" d="M11.5256 -0.000366211C8.49278 -0.000366211 5.72917 1.20162 4.09423 2.18368C3.94651 2.2723 3.80887 2.3593 3.68063 2.44309C3.42682 2.60905 3.21062 2.76373 3.03874 2.89988L4.8986 6.1852L5.77415 6.60332C9.19577 8.67458 13.7843 8.67458 17.2066 6.60332L18.2004 5.9846L19.9595 2.89988C19.5951 2.61468 19.2161 2.35718 18.8248 2.12889C17.1986 1.15731 14.5014 -0.000366211 11.5256 -0.000366211ZM7.1996 3.71839C6.54101 3.57051 5.89053 3.37465 5.25178 3.13189C6.78332 2.3158 9.06619 1.44975 11.525 1.44975C13.2284 1.44975 14.8392 1.86546 16.1713 2.39233C14.6102 2.65577 12.9444 3.10289 11.3571 3.65313C10.1083 4.08656 8.64856 4.03983 7.1996 3.71839ZM17.9157 7.79806L17.7512 7.89796C13.9864 10.1763 8.99367 10.1763 5.22895 7.89796L5.07318 7.80289C-0.581628 15.2477 -4.89894 28.9996 11.5256 28.9996C27.9489 28.9996 23.5262 14.9907 17.9157 7.79806ZM10.8274 14.5008C10.4712 14.5008 10.1296 14.6706 9.87781 14.9728C9.62597 15.2749 9.48449 15.6848 9.48449 16.1121C9.48449 16.5394 9.62597 16.9492 9.87781 17.2514C10.1296 17.5536 10.4712 17.7233 10.8274 17.7233V14.5008ZM12.1702 12.8896V12.084H10.8274V12.8896C10.1151 12.8896 9.43193 13.2291 8.92826 13.8334C8.42459 14.4378 8.14162 15.2574 8.14162 16.1121C8.14162 16.9667 8.42459 17.7864 8.92826 18.3907C9.43193 18.9951 10.1151 19.3346 10.8274 19.3346V22.5571C10.5496 22.5572 10.2787 22.4539 10.052 22.2616C9.82516 22.0693 9.65365 21.7973 9.56103 21.4832C9.50173 21.2817 9.37816 21.1167 9.21748 21.0246C9.05681 20.9324 8.87221 20.9206 8.70428 20.9917C8.53636 21.0629 8.39887 21.2112 8.32206 21.404C8.24525 21.5967 8.23541 21.8182 8.29471 22.0197C8.47992 22.6481 8.82292 23.1921 9.27648 23.5769C9.73005 23.9617 10.2719 24.1683 10.8274 24.1683V24.9739H12.1702V24.1683C12.8825 24.1683 13.5656 23.8288 14.0693 23.2245C14.573 22.6201 14.856 21.8005 14.856 20.9458C14.856 20.0912 14.573 19.2715 14.0693 18.6672C13.5656 18.0628 12.8825 17.7233 12.1702 17.7233V14.5008C12.7544 14.5008 13.2519 14.948 13.4372 15.5747C13.4647 15.6773 13.5091 15.7722 13.5677 15.8538C13.6262 15.9354 13.6979 16.0021 13.7783 16.0499C13.8588 16.0977 13.9464 16.1257 14.036 16.1322C14.1256 16.1387 14.2154 16.1235 14.3001 16.0876C14.3847 16.0517 14.4625 15.9958 14.5288 15.9233C14.5952 15.8507 14.6487 15.7629 14.6862 15.665C14.7238 15.5672 14.7446 15.4613 14.7475 15.3536C14.7503 15.246 14.7352 15.1387 14.7029 15.0382C14.5177 14.4098 14.1747 13.8658 13.7211 13.481C13.2675 13.0962 12.7257 12.8896 12.1702 12.8896ZM12.1702 19.3346V22.5571C12.5264 22.5571 12.8679 22.3873 13.1198 22.0851C13.3716 21.783 13.5131 21.3731 13.5131 20.9458C13.5131 20.5185 13.3716 20.1087 13.1198 19.8065C12.8679 19.5043 12.5264 19.3346 12.1702 19.3346Z" fill="white"/>
</svg>
